<?xml version="1.0" encoding="UTF-8"?>
<svg xmlns="http://www.w3.org/2000/svg" xmlns:xlink="http://www.w3.org/1999/xlink" width="200px" height="200px" viewBox="0 0 200 200" version="1.1">
<defs>
<filter id="alpha" filterUnits="objectBoundingBox" x="0%" y="0%" width="100%" height="100%">
  <feColorMatrix type="matrix" in="SourceGraphic" values="0 0 0 0 1 0 0 0 0 1 0 0 0 0 1 0 0 0 1 0"/>
</filter>
<mask id="mask0">
  <g filter="url(#alpha)">
<rect x="0" y="0" width="200" height="200" style="fill:rgb(0%,0%,0%);fill-opacity:0.101961;stroke:none;"/>
  </g>
</mask>
<clipPath id="clip1">
  <rect x="0" y="0" width="200" height="200"/>
</clipPath>
<g id="surface5" clip-path="url(#clip1)">
<path style=" stroke:none;fill-rule:nonzero;fill:rgb(0%,0%,0%);fill-opacity:1;" d="M 157.429688 195.664062 L 101.984375 191.65625 L 49.210938 194.832031 L 99.390625 199.875 Z M 157.429688 195.664062 "/>
</g>
</defs>
<g id="surface1">
<use xlink:href="#surface5" mask="url(#mask0)"/>
<path style=" stroke:none;fill-rule:nonzero;fill:rgb(87.450981%,73.725492%,64.313728%);fill-opacity:1;" d="M 116.839844 189.785156 L 117.371094 195.101562 L 125.222656 195.101562 L 127.820312 193.828125 L 130.035156 191.679688 L 123.09375 184.699219 L 119.707031 184.585938 Z M 116.839844 189.785156 "/>
<path style=" stroke:none;fill-rule:nonzero;fill:rgb(76.47059%,59.215689%,47.843137%);fill-opacity:1;" d="M 117.371094 195.101562 L 116.957031 190.945312 L 121.550781 195.101562 L 132.824219 189.402344 L 137.890625 195.101562 Z M 117.371094 195.101562 "/>
<path style=" stroke:none;fill-rule:nonzero;fill:rgb(87.450981%,73.725492%,64.313728%);fill-opacity:1;" d="M 88.269531 184.582031 L 91.75 188.992188 L 92.929688 195.988281 L 86.722656 195.988281 L 83.835938 193.480469 L 80.769531 189.785156 L 83.140625 185.679688 Z M 88.269531 184.582031 "/>
<path style=" stroke:none;fill-rule:nonzero;fill:rgb(76.47059%,59.215689%,47.843137%);fill-opacity:1;" d="M 81.074219 189.464844 L 74.816406 195.988281 L 92.929688 195.988281 L 92.128906 191.246094 L 88.851562 195.988281 Z M 81.074219 189.464844 "/>
<path style=" stroke:none;fill-rule:nonzero;fill:rgb(54.11765%,40.000001%,31.764707%);fill-opacity:1;" d="M 121.347656 182.945312 L 118.578125 183.214844 L 116.308594 184.46875 L 116.839844 189.785156 L 123.09375 184.699219 Z M 90.863281 183.742188 L 88.636719 182.367188 L 85.011719 182.4375 L 83.140625 185.679688 L 91.75 188.992188 Z M 90.863281 183.742188 "/>
<path style=" stroke:none;fill-rule:nonzero;fill:rgb(74.509805%,56.078434%,0%);fill-opacity:1;" d="M 123.386719 141.972656 L 111.75 146.675781 L 100.339844 153.117188 L 107.492188 172.304688 L 118.539062 169.972656 L 129.277344 165.84375 Z M 123.386719 141.972656 "/>
<path style=" stroke:none;fill-rule:nonzero;fill:rgb(89.411765%,78.039217%,15.686275%);fill-opacity:1;" d="M 107.492188 172.304688 L 110.027344 179.523438 L 119.890625 173.492188 L 129.277344 165.84375 Z M 107.492188 172.304688 "/>
<path style=" stroke:none;fill-rule:nonzero;fill:rgb(80.000001%,67.450982%,7.450981%);fill-opacity:1;" d="M 110.027344 179.523438 L 129.277344 165.84375 L 133.078125 179.398438 L 121.585938 180.523438 Z M 110.027344 179.523438 "/>
<path style=" stroke:none;fill-rule:nonzero;fill:rgb(89.411765%,78.039217%,15.686275%);fill-opacity:1;" d="M 110.027344 179.523438 L 112.558594 185.601562 L 133.078125 179.398438 Z M 110.027344 179.523438 "/>
<path style=" stroke:none;fill-rule:nonzero;fill:rgb(74.509805%,56.078434%,0%);fill-opacity:1;" d="M 100.339844 153.117188 L 98.753906 171.671875 L 87.320312 170.40625 L 73.804688 167.363281 L 75.765625 142.984375 L 90.242188 147.960938 Z M 100.339844 153.117188 "/>
<path style=" stroke:none;fill-rule:nonzero;fill:rgb(89.411765%,78.039217%,15.686275%);fill-opacity:1;" d="M 73.804688 167.367188 L 86.507812 174.71875 L 98.121094 179.523438 L 98.753906 171.671875 Z M 73.804688 167.367188 "/>
<path style=" stroke:none;fill-rule:nonzero;fill:rgb(80.000001%,67.450982%,7.450981%);fill-opacity:1;" d="M 73.804688 167.367188 L 72.539062 179.648438 L 86.5 180.289062 L 98.121094 179.523438 Z M 73.804688 167.367188 "/>
<path style=" stroke:none;fill-rule:nonzero;fill:rgb(89.411765%,78.039217%,15.686275%);fill-opacity:1;" d="M 98.121094 179.523438 L 72.539062 179.648438 L 97.488281 185.222656 Z M 98.121094 179.523438 "/>
<path style=" stroke:none;fill-rule:nonzero;fill:rgb(27.450982%,27.450982%,27.450982%);fill-opacity:1;" d="M 111.488281 85.640625 L 116.679688 87.378906 L 119.558594 90.121094 L 123.324219 89.601562 L 130.417969 96.820312 L 128.378906 103.441406 L 123.199219 111.132812 L 78.109375 112.273438 L 72.714844 107.722656 L 68.613281 102.140625 L 78.742188 89.476562 L 82.601562 88.976562 L 84.550781 86.992188 L 90.359375 84.503906 L 99.324219 90.953125 Z M 111.488281 85.640625 "/>
<path style=" stroke:none;fill-rule:nonzero;fill:rgb(52.156866%,38.82353%,0%);fill-opacity:1;" d="M 123.386719 141.972656 L 100.335938 153.117188 L 75.769531 142.984375 L 78.109375 112.273438 L 81.933594 107.925781 L 85.773438 105.75 L 115.789062 104.101562 L 119.335938 105.980469 L 123.199219 111.132812 Z M 123.386719 141.972656 "/>
<path style=" stroke:none;fill-rule:nonzero;fill:rgb(74.509805%,56.078434%,0%);fill-opacity:1;" d="M 123.324219 89.601562 L 123.199219 111.132812 L 115.789062 104.101562 L 116.679688 87.378906 Z M 84.550781 86.992188 L 85.773438 105.75 L 78.109375 112.273438 L 78.742188 89.476562 Z M 84.550781 86.992188 "/>
<path style=" stroke:none;fill-rule:nonzero;fill:rgb(61.960787%,46.666667%,0%);fill-opacity:1;" d="M 110.847656 132.09375 L 90.585938 132.09375 L 90.585938 111.445312 L 110.847656 111.445312 Z M 123.265625 122.34375 L 120.980469 120.695312 L 118.703125 124.875 L 121.742188 124.367188 L 123.300781 128.042969 Z M 123.265625 122.34375 "/>
<path style=" stroke:none;fill-rule:nonzero;fill:rgb(80.000001%,67.450982%,7.450981%);fill-opacity:1;" d="M 109.964844 134.625 L 106.671875 137.285156 L 107.175781 139.945312 L 111.484375 143.113281 L 113.128906 136.398438 Z M 90.585938 129.941406 L 95.90625 128.167969 L 95.398438 123.863281 L 97.933594 122.847656 L 96.410156 118.667969 L 95.019531 119.175781 L 95.144531 121.203125 L 91.851562 120.949219 L 90.585938 124.113281 L 90.113281 126.710938 Z M 90.585938 129.941406 "/>
<path style=" stroke:none;fill-rule:nonzero;fill:rgb(61.960787%,46.666667%,0%);fill-opacity:1;" d="M 100.972656 136.019531 L 97.679688 135.132812 L 98.4375 138.679688 L 100.84375 138.300781 Z M 100.972656 136.019531 "/>
<path style=" stroke:none;fill-rule:nonzero;fill:rgb(70.980394%,54.11765%,0%);fill-opacity:1;" d="M 90.585938 124.113281 L 86.28125 124.746094 L 88.304688 129.941406 L 90.585938 129.941406 Z M 90.585938 124.113281 "/>
<path style=" stroke:none;fill-rule:nonzero;fill:rgb(87.450981%,73.725492%,64.313728%);fill-opacity:1;" d="M 140.296875 105.242188 L 130.417969 96.820312 L 123.199219 111.132812 L 130.480469 113.601562 L 137.140625 111.277344 Z M 140.296875 105.242188 "/>
<path style=" stroke:none;fill-rule:nonzero;fill:rgb(87.450981%,73.725492%,64.313728%);fill-opacity:1;" d="M 78.109375 112.273438 L 65.953125 122.277344 L 61.96875 109.671875 L 68.613281 102.140625 Z M 78.109375 112.273438 "/>
<path style=" stroke:none;fill-rule:nonzero;fill:rgb(89.411765%,78.039217%,15.686275%);fill-opacity:1;" d="M 60.507812 101.128906 L 35.9375 104.800781 L 28.082031 125.824219 L 39.230469 143.429688 L 61.644531 151.28125 L 83.875 146.328125 L 81.78125 125.316406 L 65.953125 122.277344 Z M 60.507812 101.128906 "/>
<path style=" stroke:none;fill-rule:nonzero;fill:rgb(76.47059%,59.215689%,47.843137%);fill-opacity:1;" d="M 54.808594 111.890625 L 52.113281 114.527344 L 48.222656 116.960938 L 53.667969 125.570312 L 59.746094 120.503906 L 56.535156 115.671875 Z M 54.808594 111.890625 "/>
<path style=" stroke:none;fill-rule:nonzero;fill:rgb(54.11765%,40.000001%,31.764707%);fill-opacity:1;" d="M 57.828125 122.101562 L 55.820312 116.070312 L 48.222656 116.960938 L 54.808594 111.890625 L 59.746094 120.503906 Z M 57.828125 122.101562 "/>
<path style=" stroke:none;fill-rule:nonzero;fill:rgb(87.450981%,73.725492%,64.313728%);fill-opacity:1;" d="M 55.820312 116.070312 L 48.222656 116.957031 L 46.070312 125.09375 L 48.4375 126.394531 Z M 55.820312 116.070312 "/>
<path style=" stroke:none;fill-rule:nonzero;fill:rgb(27.450982%,27.450982%,27.450982%);fill-opacity:1;" d="M 43.875 112.414062 L 39.117188 110.667969 L 37.371094 115.421875 L 42.128906 117.171875 Z M 43.875 112.414062 "/>
<path style=" stroke:none;fill-rule:nonzero;fill:rgb(50.196081%,17.254902%,0%);fill-opacity:1;" d="M 40.835938 120.773438 L 36.078125 119.027344 L 34.332031 123.78125 L 39.085938 125.527344 Z M 40.835938 120.773438 "/>
<path style=" stroke:none;fill-rule:nonzero;fill:rgb(65.882355%,25.098041%,0%);fill-opacity:1;" d="M 43.875 130.144531 L 39.117188 128.398438 L 37.371094 133.15625 L 42.128906 134.902344 Z M 43.875 130.144531 "/>
<path style=" stroke:none;fill-rule:nonzero;fill:rgb(80.000001%,30.588236%,0%);fill-opacity:1;" d="M 51.597656 136.476562 L 46.84375 134.730469 L 45.097656 139.488281 L 49.851562 141.234375 Z M 51.597656 136.476562 "/>
<path style=" stroke:none;fill-rule:nonzero;fill:rgb(92.54902%,52.156866%,0%);fill-opacity:1;" d="M 60.210938 139.644531 L 55.453125 137.898438 L 53.710938 142.652344 L 58.464844 144.398438 Z M 60.210938 139.644531 "/>
<path style=" stroke:none;fill-rule:nonzero;fill:rgb(100%,60.784316%,0.392157%);fill-opacity:1;" d="M 69.964844 139.898438 L 65.207031 138.152344 L 63.460938 142.90625 L 68.214844 144.652344 Z M 69.964844 139.898438 "/>
<path style=" stroke:none;fill-rule:nonzero;fill:rgb(95.686275%,83.92157%,36.470589%);fill-opacity:1;" d="M 78.574219 134.957031 L 73.820312 133.210938 L 72.074219 137.96875 L 76.828125 139.714844 Z M 78.574219 134.957031 "/>
<path style=" stroke:none;fill-rule:nonzero;fill:rgb(54.11765%,40.000001%,31.764707%);fill-opacity:1;" d="M 55.820312 116.070312 L 53.667969 125.570312 L 51.472656 122.101562 Z M 55.820312 116.070312 "/>
<path style=" stroke:none;fill-rule:nonzero;fill:rgb(80.000001%,67.450982%,7.450981%);fill-opacity:1;" d="M 51.472656 122.101562 L 48.4375 126.398438 L 53.667969 125.570312 Z M 51.472656 122.101562 "/>
<path style=" stroke:none;fill-rule:nonzero;fill:rgb(76.47059%,59.215689%,47.843137%);fill-opacity:1;" d="M 130.480469 113.601562 L 148.109375 98.386719 L 153.960938 98.050781 L 152.972656 104.945312 L 143.074219 117.667969 Z M 130.480469 113.601562 "/>
<path style=" stroke:none;fill-rule:nonzero;fill:rgb(54.11765%,40.000001%,31.764707%);fill-opacity:1;" d="M 148.109375 98.386719 L 152.972656 104.945312 L 157.429688 103.382812 L 153.882812 94.203125 Z M 148.109375 98.386719 "/>
<path style=" stroke:none;fill-rule:nonzero;fill:rgb(27.450982%,27.450982%,27.450982%);fill-opacity:1;" d="M 132.53125 76.476562 L 155.667969 101.476562 L 158.222656 99.46875 L 159.65625 96.769531 Z M 132.53125 76.476562 "/>
<path style=" stroke:none;fill-rule:nonzero;fill:rgb(74.509805%,56.078434%,0%);fill-opacity:1;" d="M 164.761719 107.929688 L 165.460938 111.683594 L 171.792969 112.570312 L 170.398438 109.277344 L 167.578125 108.589844 L 165.890625 107.304688 Z M 164.761719 107.929688 "/>
<path style=" stroke:none;fill-rule:nonzero;fill:rgb(52.156866%,38.82353%,0%);fill-opacity:1;" d="M 165.714844 101.296875 L 167.578125 108.589844 L 160.773438 106.996094 L 163.007812 103.675781 Z M 165.714844 101.296875 "/>
<path style=" stroke:none;fill-rule:nonzero;fill:rgb(56.078434%,56.078434%,56.078434%);fill-opacity:1;" d="M 152.679688 98.25 L 160.773438 106.996094 L 165.714844 101.296875 L 159.65625 96.769531 Z M 152.679688 98.25 "/>
<path style=" stroke:none;fill-rule:nonzero;fill:rgb(87.450981%,73.725492%,64.313728%);fill-opacity:1;" d="M 150.890625 102.140625 L 152.679688 98.25 L 158.28125 98.914062 L 159.65625 96.769531 L 151.882812 90.953125 L 148.109375 98.386719 Z M 150.890625 102.140625 "/>
<path style=" stroke:none;fill-rule:nonzero;fill:rgb(76.47059%,59.215689%,47.843137%);fill-opacity:1;" d="M 161.402344 91.597656 L 166.949219 99.574219 L 165.714844 101.296875 L 151.882812 90.953125 L 155.996094 91.230469 Z M 161.402344 91.597656 "/>
<path style=" stroke:none;fill-rule:nonzero;fill:rgb(80.000001%,67.450982%,7.450981%);fill-opacity:1;" d="M 67.578125 45.949219 L 94.808594 39.347656 L 123.167969 31.023438 L 122.78125 26.9375 L 120.464844 20.964844 L 93.492188 33.191406 Z M 67.578125 45.949219 "/>
<path style=" stroke:none;fill-rule:nonzero;fill:rgb(89.411765%,78.039217%,15.686275%);fill-opacity:1;" d="M 120.464844 20.964844 L 91.679688 28.097656 L 62.601562 37.40625 L 63.84375 41.140625 L 67.578125 45.949219 Z M 120.464844 20.964844 "/>
<path style=" stroke:none;fill-rule:nonzero;fill:rgb(45.882353%,34.117648%,0%);fill-opacity:1;" d="M 88.5 22.066406 L 85.871094 30.792969 L 97.386719 27.523438 Z M 120.464844 20.964844 L 125.070312 22.503906 L 130.089844 26.15625 L 124.238281 35.40625 L 122.949219 32.769531 L 123.171875 31.023438 Z M 120.464844 20.964844 "/>
<path style=" stroke:none;fill-rule:nonzero;fill:rgb(80.000001%,67.450982%,7.450981%);fill-opacity:1;" d="M 120.464844 20.964844 L 119.875 16.261719 L 121.007812 10.148438 L 126.886719 18.902344 L 130.089844 26.15625 Z M 120.464844 20.964844 "/>
<path style=" stroke:none;fill-rule:nonzero;fill:rgb(74.509805%,56.078434%,0%);fill-opacity:1;" d="M 121.007812 10.148438 L 136.472656 19.777344 L 130.089844 26.15625 Z M 121.007812 10.148438 "/>
<path style=" stroke:none;fill-rule:nonzero;fill:rgb(52.156866%,38.82353%,0%);fill-opacity:1;" d="M 120.464844 20.964844 L 121.007812 10.148438 L 121.332031 4.203125 L 119.226562 6.410156 L 110.132812 15.96875 L 110.40625 23.824219 Z M 120.464844 20.964844 "/>
<path style=" stroke:none;fill-rule:nonzero;fill:rgb(74.509805%,56.078434%,0%);fill-opacity:1;" d="M 102.910156 5.613281 L 102.078125 10.148438 L 106.574219 14.046875 L 110.839844 16.207031 L 117.804688 8.238281 L 105.109375 -0.125 Z M 102.910156 5.613281 "/>
<path style=" stroke:none;fill-rule:nonzero;fill:rgb(80.000001%,67.450982%,7.450981%);fill-opacity:1;" d="M 110.839844 16.207031 L 102.078125 10.148438 L 99.34375 16.976562 L 97.386719 27.523438 L 110.40625 23.824219 Z M 110.839844 16.207031 "/>
<path style=" stroke:none;fill-rule:nonzero;fill:rgb(80.000001%,67.450982%,7.450981%);fill-opacity:1;" d="M 87.371094 9.285156 L 97.066406 10.339844 L 102.078125 10.148438 L 105.109375 -0.125 Z M 87.371094 9.285156 "/>
<path style=" stroke:none;fill-rule:nonzero;fill:rgb(74.509805%,56.078434%,0%);fill-opacity:1;" d="M 102.078125 10.148438 L 87.371094 9.285156 L 90.488281 16.3125 L 97.386719 27.523438 Z M 102.078125 10.148438 "/>
<path style=" stroke:none;fill-rule:nonzero;fill:rgb(45.882353%,34.117648%,0%);fill-opacity:1;" d="M 60 49.546875 L 71.164062 52.015625 L 69.417969 48.097656 L 67.578125 45.949219 L 63.875 46.84375 Z M 60 49.546875 "/>
<path style=" stroke:none;fill-rule:nonzero;fill:rgb(80.000001%,67.450982%,7.450981%);fill-opacity:1;" d="M 97.386719 27.523438 L 88.972656 22.890625 L 83.71875 20.644531 L 80.558594 18.261719 L 81.882812 13.121094 L 84.003906 9.023438 L 85.316406 5.5 L 87.371094 9.285156 Z M 97.386719 27.523438 "/>
<path style=" stroke:none;fill-rule:nonzero;fill:rgb(74.509805%,56.078434%,0%);fill-opacity:1;" d="M 80.558594 18.261719 L 75.710938 16.722656 L 70.878906 12.90625 L 69.851562 7.878906 L 84.003906 9.023438 Z M 80.558594 18.261719 "/>
<path style=" stroke:none;fill-rule:nonzero;fill:rgb(52.156866%,38.82353%,0%);fill-opacity:1;" d="M 80.558594 18.261719 L 70.878906 12.90625 L 66.011719 19.398438 L 69.273438 25.738281 L 74.75 33.953125 L 79.25 24.152344 Z M 58.179688 38.71875 L 55.984375 51.453125 L 67.578125 45.949219 L 62.605469 37.40625 L 60.488281 37.289062 Z M 58.179688 38.71875 "/>
<path style=" stroke:none;fill-rule:nonzero;fill:rgb(74.509805%,56.078434%,0%);fill-opacity:1;" d="M 66.011719 19.398438 L 61.621094 24.40625 L 60.0625 28.15625 L 65.289062 30.457031 L 74.75 33.953125 Z M 66.011719 19.398438 "/>
<path style=" stroke:none;fill-rule:nonzero;fill:rgb(80.000001%,67.450982%,7.450981%);fill-opacity:1;" d="M 66.011719 19.398438 L 50.542969 24.589844 L 60.0625 28.15625 Z M 66.011719 19.398438 "/>
<path style=" stroke:none;fill-rule:nonzero;fill:rgb(80.000001%,67.450982%,7.450981%);fill-opacity:1;" d="M 60.0625 28.15625 L 51.515625 40.703125 L 62.601562 37.40625 L 74.75 33.953125 Z M 60.0625 28.15625 "/>
<path style=" stroke:none;fill-rule:nonzero;fill:rgb(74.509805%,56.078434%,0%);fill-opacity:1;" d="M 80.558594 18.261719 L 74.75 33.953125 L 81.332031 42.257812 L 85.871094 30.792969 L 88.972656 22.890625 Z M 80.558594 18.261719 "/>
<path style=" stroke:none;fill-rule:nonzero;fill:rgb(87.450981%,73.725492%,64.313728%);fill-opacity:1;" d="M 123.167969 31.023438 L 132.6875 70.066406 L 115.382812 76.230469 L 113.09375 80.339844 L 111.488281 85.640625 L 104.046875 90.804688 L 97.863281 97.214844 L 87.085938 77.324219 L 79.746094 66.53125 L 73.882812 56.617188 L 72.640625 51.738281 L 67.578125 45.949219 Z M 123.167969 31.023438 "/>
<path style=" stroke:none;fill-rule:nonzero;fill:rgb(54.11765%,40.000001%,31.764707%);fill-opacity:1;" d="M 84.664062 60.722656 L 81.714844 55.765625 L 76.929688 58.246094 L 81.082031 60.203125 Z M 84.664062 60.722656 "/>
<path style=" stroke:none;fill-rule:nonzero;fill:rgb(76.47059%,59.215689%,47.843137%);fill-opacity:1;" d="M 89.59375 40.039062 L 104.660156 79.964844 L 110.839844 79.933594 L 111.488281 85.640625 L 97.863281 97.214844 L 88.433594 81.242188 L 87.371094 77.851562 L 85.632812 76.496094 L 79.746094 66.53125 L 88.84375 61.128906 L 85.855469 55.464844 L 90.832031 52.546875 L 84.453125 41.417969 Z M 98.625 45.875 L 103.917969 45.839844 L 109.976562 54.058594 L 108.816406 44.371094 L 105.457031 39.457031 Z M 112.40625 37.4375 L 114.8125 50.261719 L 117.328125 41.296875 L 121.703125 38.625 Z M 112.40625 37.4375 "/>
<path style=" stroke:none;fill-rule:nonzero;fill:rgb(52.156866%,38.82353%,0%);fill-opacity:1;" d="M 105.457031 39.457031 L 97.175781 42.5625 L 98.625 45.875 Z M 112.40625 37.4375 L 120.929688 35.089844 L 121.703125 38.625 Z M 112.40625 37.4375 "/>
<path style=" stroke:none;fill-rule:nonzero;fill:rgb(45.882353%,34.117648%,0%);fill-opacity:1;" d="M 108.371094 63.175781 L 115.078125 58.628906 L 122.269531 59.113281 L 116.519531 63.417969 Z M 108.371094 63.175781 "/>
<path style=" stroke:none;fill-rule:nonzero;fill:rgb(70.980394%,54.11765%,0%);fill-opacity:1;" d="M 124.25 57.84375 L 116.28125 62.945312 L 105.648438 63.253906 L 117.003906 66.066406 Z M 124.25 57.84375 "/>
<path style=" stroke:none;fill-rule:nonzero;fill:rgb(52.156866%,38.82353%,0%);fill-opacity:1;" d="M 84.453125 41.417969 L 90.832031 52.546875 L 85.855469 55.464844 L 83.261719 51.246094 L 73.882812 56.617188 L 67.578125 45.949219 Z M 84.453125 41.417969 "/>
<path style=" stroke:none;fill-rule:nonzero;fill:rgb(54.11765%,40.000001%,31.764707%);fill-opacity:1;" d="M 115.382812 76.230469 L 100.78125 81.316406 L 111.488281 85.640625 Z M 88.789062 64.179688 L 86.5625 72.925781 L 81.941406 67.828125 Z M 95.609375 70.570312 L 88.433594 81.242188 L 85.65625 76.480469 L 88.972656 72.925781 Z M 95.609375 70.570312 "/>
<path style=" stroke:none;fill-rule:nonzero;fill:rgb(90.980393%,78.823531%,71.372551%);fill-opacity:1;" d="M 112.40625 37.4375 L 105.457031 39.457031 L 109.976562 54.058594 L 116.789062 52.003906 Z M 112.40625 37.4375 "/>
<path style=" stroke:none;fill-rule:nonzero;fill:rgb(54.11765%,40.000001%,31.764707%);fill-opacity:1;" d="M 116.789062 52.003906 L 114.410156 56.4375 L 109.976562 54.058594 Z M 116.789062 52.003906 "/>
<path style=" stroke:none;fill-rule:nonzero;fill:rgb(45.882353%,34.117648%,0%);fill-opacity:1;" d="M 89.695312 60.621094 L 95.609375 70.570312 L 85.65625 76.480469 L 79.746094 66.53125 Z M 83.304688 67.4375 L 86.5625 72.925781 L 92.050781 69.664062 L 88.789062 64.179688 Z M 83.304688 67.4375 "/>
<path style=" stroke:none;fill-rule:nonzero;fill:rgb(70.980394%,54.11765%,0%);fill-opacity:1;" d="M 83.5 58.765625 L 81.082031 60.203125 L 85.613281 67.828125 L 88.03125 66.390625 Z M 83.5 58.765625 "/>
<path style=" stroke:none;fill-rule:nonzero;fill:rgb(16.862746%,16.862746%,16.862746%);fill-opacity:1;" d="M 106.449219 49.910156 C 106.460938 50.679688 106.058594 51.394531 105.394531 51.785156 C 104.730469 52.171875 103.910156 52.171875 103.246094 51.785156 C 102.582031 51.398438 102.179688 50.679688 102.191406 49.914062 C 102.207031 48.75 103.15625 47.816406 104.320312 47.816406 C 105.484375 47.816406 106.429688 48.75 106.449219 49.910156 Z M 120.832031 45.152344 C 120.832031 46.328125 119.878906 47.28125 118.703125 47.28125 C 117.527344 47.28125 116.570312 46.328125 116.570312 45.152344 C 116.570312 43.972656 117.527344 43.019531 118.703125 43.019531 C 119.878906 43.019531 120.832031 43.972656 120.832031 45.152344 Z M 120.832031 45.152344 "/>
</g>
</svg>
